<?xml version="1.0" standalone="no"?>
<!DOCTYPE svg PUBLIC "-//W3C//DTD SVG 20010904//EN"
 "http://www.w3.org/TR/2001/REC-SVG-20010904/DTD/svg10.dtd">
<svg version="1.0" xmlns="http://www.w3.org/2000/svg"
 width="650.000000pt" height="650.000000pt" viewBox="0 0 650.000000 650.000000"
 preserveAspectRatio="xMidYMid meet">
<metadata>
Created by potrace 1.14, written by Peter Selinger 2001-2017
</metadata>
<g transform="translate(0.000000,650.000000) scale(0.100000,-0.100000)"
fill="#000000" stroke="none">
<path d="M0 3250 l0 -3250 3250 0 3250 0 0 3250 0 3250 -3250 0 -3250 0 0
-3250z m3666 2759 c483 -47 941 -234 1324 -543 102 -82 301 -283 380 -384 239
-305 418 -687 493 -1047 42 -200 52 -299 51 -515 0 -279 -34 -486 -125 -766
-260 -802 -850 -1379 -1656 -1620 l-92 -27 -45 -76 c-232 -399 -816 -697
-1157 -591 -180 55 -265 178 -276 400 -4 95 13 261 32 312 5 12 -11 22 -62 42
-189 75 -486 253 -673 402 -109 87 -319 296 -399 399 -269 340 -426 703 -498
1147 -24 153 -25 628 0 793 l16 110 -23 20 c-13 11 -52 40 -87 65 -89 63 -216
192 -273 278 -169 255 -198 554 -85 895 61 186 115 263 221 317 134 66 283 18
391 -128 95 -129 187 -191 384 -262 l62 -22 118 107 c189 173 326 275 518 386
295 170 638 278 985 312 84 9 376 6 476 -4z"/>
<path d="M3230 5733 c-204 -21 -414 -68 -582 -132 -289 -108 -589 -301 -788
-505 -54 -55 -55 -57 -40 -83 32 -57 131 -86 213 -63 27 7 74 36 123 77 105
86 269 195 374 248 996 498 2190 90 2667 -913 67 -140 78 -149 169 -131 79 16
114 43 114 91 0 39 -101 252 -178 376 -271 437 -715 781 -1214 941 -116 37
-306 76 -440 90 -90 10 -338 12 -418 4z"/>
<path d="M810 5307 c-54 -114 -83 -246 -84 -382 -1 -137 13 -197 72 -310 67
-129 261 -298 453 -395 l55 -28 -32 -129 c-87 -345 -86 -733 1 -1078 198 -784
809 -1401 1590 -1605 75 -20 109 -33 107 -42 -2 -7 -26 -67 -54 -133 -67 -160
-92 -260 -85 -343 9 -116 62 -157 193 -148 108 7 190 29 300 81 226 106 377
257 480 480 l33 72 98 23 c440 101 866 360 1161 705 276 322 453 706 519 1126
36 229 16 692 -33 766 -11 18 -24 23 -59 23 -25 0 -750 -161 -1613 -357
l-1567 -357 -125 -1 c-147 0 -223 20 -305 83 -117 89 -170 207 -169 382 0 113
27 260 47 260 7 0 66 -12 132 -27 102 -23 144 -27 285 -27 155 -1 170 1 243
27 157 55 279 159 367 312 55 98 112 238 108 268 -3 19 -9 22 -43 20 -22 -1
-74 -9 -115 -19 -109 -25 -198 -11 -435 67 -168 55 -201 63 -288 67 -94 4
-100 3 -162 -27 -71 -35 -119 -84 -173 -179 -25 -42 -32 -49 -27 -27 39 177
29 269 -41 361 -43 55 -130 109 -310 189 -90 40 -189 88 -220 106 -71 43 -155
128 -197 199 -48 80 -69 79 -107 -3z m3056 -2218 c121 -58 119 -231 -2 -290
-111 -53 -234 22 -234 143 0 130 119 204 236 147z m1327 -383 c8 -20 -59 -153
-130 -261 -234 -355 -589 -633 -982 -769 -58 -20 -108 -35 -112 -34 -4 2 28
88 72 193 44 104 77 196 74 203 -8 22 -115 8 -184 -24 -104 -47 -116 -65 -252
-388 -126 -301 -160 -365 -231 -441 -54 -59 -162 -130 -234 -156 -64 -21 -84
-19 -84 8 0 10 115 292 257 627 228 538 262 614 302 658 24 27 62 59 85 71 39
20 1329 323 1387 326 15 0 29 -5 32 -13z"/>
</g>
</svg>
