<svg xmlns="http://www.w3.org/2000/svg" height="800" width="1200" viewBox="-62.09229 -22.216675 538.13318 133.30005"><path d="M130.181 32.7395c-.4618-.0163-1.1148.2275-1.4517.5415-.3376.3147-.9906.5595-1.4513.544l-2.9157-.1023L134.544 23.57c.6082-.6072.61-1.5932.0029-2.202-.37-.3705-.8802-.513-1.3596-.4326L112.4517 41.611s-1.0019-1.3515.763-3.2314c.5014-.5359 2.3919-2.4349 4.838-4.8772l-15.2449-.5323.3616-10.365s-3.5966 2.8212-3.7853 8.2113c-.062 1.7695-.2833 6.4734-.3545 10.1325-.0484 2.5153-.917 5.1646-1.6782 6.1983 1.5748-.3532 3.2085-.5476 4.8884-.5476h4.772c10.9686.3214 14.3041-2.056 18.2299-5.395 2.372-2.0186 8.8607-8.3277 8.8607-8.3277zM93.7736 48.105l.0484-1.3815c-5.564 2.1075-12.5932 3.0586-20.9808 2.7658-8.2268-.2876-15.7762-1.0968-21.6334-2.95a27.1535 27.1535 0 014.9156 8.1266c2.321.3334 4.7752.6428 7.3727.6428 21.9347 0 30.0666-7.0496 30.2775-7.2037M39.435 60.5694c.1298-.074 3.1062-1.7738 4.1279-2.394 2.9125-1.7674 4.3924-2.9016 4.5247-3.4678.0254-.1076.0102-.2017-.0441-.2811-.1404-.2053-.4688-.689-5.1876 1.8662-1.1084.6-4.2975 2.457-4.4334 2.5357.3962.5405.7395 1.1212 1.0125 1.741m-3.03-3.7641c3.375-5.8928 3.4043-6.9353 2.987-7.1766-.418-.241-1.3046.3062-4.718 6.163.617.2745 1.1934.618 1.731 1.0136m-5.9895 5.0267c-1.0735.176-1.9392 1.041-2.1173 2.1145-.2946 1.7766 1.2234 3.2932 3.0014 2.9976 1.0746-.1782 1.94-1.0474 2.1131-2.123.285-1.7741-1.2266-3.2802-2.9972-2.9891m-1.99 8.5764c-1.995-1.2351-3.1993-3.3303-3.1993-5.642 0-3.6576 3.0275-6.633 6.7497-6.633.2448 0 .775.0431.7835.0445.2547.0385.4318-.3228.0638-.4445-.6392-.2124-1.3084-.2875-1.9692-.2875-3.8283 0-6.9426 3.1143-6.9426 6.9423 0 2.793 1.6453 5.3001 4.2146 6.3828.3771.1588.515-.229.2995-.3626m2.4815-15.4147c.3287 0 .6519.0247.9722.0593v-1.5878c.0018-1.3117.0046-3.506-.1023-5.389-.1781-3.1253-.538-3.5557-.901-3.5564-.3633.0007-.7239.4364-.9024 3.5972-.1072 1.8916-.1048 4.0757-.1037 5.381l.0007 1.5642c.3408-.0395.6847-.0685 1.0365-.0685m23.7366 3.179c3.8897 16.1737-7.9978 30.6884-23.7694 30.6884-15.543 0-21.6546-12.8365-21.6546-12.8365 3.2692-1.2118 6.6587 9.9854 21.6408 9.9854 8.9771 0 16.7019-5.4871 19.9782-13.279 1.143-2.5615 1.8129-6.018 1.784-8.382-.0293-2.364-.4368-3.8152-.56-4.1698-.1671-.4819-.4007-.7405-.8205-.6636-.4166.077-.6988.4632-.6565.8933.0427.43.4657 3.1358-.9274 7.216l-9.4838-2.3985c-.104 1.063-.3944 2.0687-.8251 2.9965 2.2973 1.3907 4.772 3.0304 4.4725 3.549-.3013.5203-2.9531-.8016-5.3097-2.0998a9.327 9.327 0 01-2.2658 2.2596c1.2689 2.1985 2.3177 4.0142 2.3692 4.1049 1.1243 1.9456 2.8974 4.9015 2.1022 5.363-.7962.4596-2.4423-2.5136-3.5916-4.5026-.0536-.0928-1.1035-1.9124-2.3746-4.113a9.2353 9.2353 0 01-3.0159.7955v4.7621c0 2.2476.0579 5.6935-.8614 5.6953-.9197 0-.8594-3.398-.8594-5.6953v-4.765c-1.0647-.1012-2.0733-.3876-3.0022-.817-1.2777 2.213-2.3353 4.0457-2.389 4.1374-1.124 1.946-2.7964 4.9604-3.5934 4.5015-.7962-.4604.9557-3.3726 2.1044-5.362.0536-.093 1.1112-1.9257 2.389-4.1376a9.3531 9.3531 0 01-2.2194-2.2218c-.1915.1097-1.5151.8787-2.1438 1.2262-1.6083.8883-3.2283 1.6443-3.5588 1.0728-.3376-.5842 1.168-1.6249 2.7802-2.5911.5881-.3525 1.8726-1.0884 2.0652-1.1988-.5433-1.1821-.8544-2.493-.8544-3.8784 0-3.8217 2.3043-7.1021 5.5968-8.538l-.7416-1.3465c-.6618-1.148-1.755-3.0476-2.7827-4.6143-1.7176-2.6212-2.2468-2.8159-2.5604-2.6335-.1831.1055-.5638.326.7627 3.055.2018.4146 1.4086 2.7118 1.4086 2.7118s-3.9652-1.9977-9.5779-2.721c-1.8609 1.9495-3.8266 4.638-5.027 8.458-.4485 1.4283-.6107 3.1315-2.244 3.2448 0-10.2052 11.9866-25.0215 29.5807-21.5787 9.1383 1.7871 16.4578 8.7739 18.6358 17.8272m11.0367 1.8764c-3.0068-.105-5.7256-.3817-8.201-.7933a27.2238 27.2238 0 01.4811 5.0962 27.116 27.116 0 01-.3757 4.5021c3.4364.3306 7.4655.5123 11.812.3059 3.9554-.1873 7.4437-.6738 10.4977-1.3441.1799-3.4322 1.136-6.6633 2.698-9.5172-4.5314 1.3285-10.117 1.9886-16.9121 1.7504m8.9358-40.0039l.0808-2.3107c-2.3509-.1344-4.9212-.2547-7.0146-.3288-2.2123-.0776-5.1696-.1397-7.5981-.1559l-1.0333 29.5377s1.669-.2452 1.8686-2.9086c.0018-.0201.6283-11.3612.6283-11.3612h11.437l.0018.012 1.246-1.4891-9.453-.3299c.6283-4.4725 1.9467-10.124 9.8365-10.6655M8.311 43.343s15.4288-7.9632 22.9881-16.4218l.15-4.2997c-2.0444 3.1235-7.9047 10.328-23.0258 19.8184zm-.2454 6.4904L0 49.5521l.1587-4.5328c24.933-16.6638 32.7696-32.2636 32.7696-32.2636 2.5897-.798 19.7965-1.6278 35.0495-1.0954 15.2541.533 31.914 2.6596 34.8883 3.538-.0144.388.0074 2.1347 0 2.3326-4.4316-.6354-17.7726-2.3375-34.9913-2.94-13.5647-.4735-26.0085.0017-31.8491.309l-.7952 22.7626c-1.4358-.2332-2.891-.3637-4.3564-.3637-9.5755 0-17.9998 5.0059-22.8085 12.5345m44.9082-30.842c.9331-.0839 1.5639-.4113 2.4744-1.664-6.1066-.0705-9.1885-.0018-14.9387.2501l-.6964 19.9344c3.7197 2.425 9.9935 4.3939 15.4058 5.0843v-1.1857c-7.9753-.9031-8.0525-7.6486-8.0525-9.6746 0-1.487 1.0396-.8015 2.0359-1.0312.5507-.127 1.0893-1.5515 1.0893-2.9538 0-1.4442-.3626-1.7508-.3626-2.1484 0-.399.303-.5246.303-1.211 0-1.1773-.7383-1.7964-2.5728-1.7964-4.474 0-3.7214 3.454-3.7214 6.006 0 1.3519-1.1346 2.1985-1.7145 2.5534l.0673-11.4215s9.7508-.6583 10.6832-.7415M92.51 20.7228c1.2022 0 2.0673-.3817 2.8458-1.2263-4.1038-.4381-9.3828-.9394-14.8692-1.3532l-.8809 25.2455c4.93-.3496 11.0324-1.8525 14.3951-3.5356h.001s1.0831-4.9124 1.347-13.5114c-.539-.666-1.3956-1.676-3.3034-1.676-1.8341 0-3.0276.6184-3.0276 1.797 0 .6865.3041.8114.3041 1.2104 0 .3983-.3633.7049-.3633 2.1484 0 1.4023.3524 2.8265.9038 2.9535.997.23 2.1618-.3644 2.6747 1.0315.5116 1.3935-.1375 3.0826-1.8168 4.5374-.7694.6657-3.2 2.3622-8.6966 3.028l.2282-20.783s9.0555.1338 10.258.1338m4.88 48.3044c0 1.5293.7444 2.9793 1.9904 3.8792a.1403.1403 0 00.0787.025.134.134 0 00.1037-.0469.1358.1358 0 00-.0053-.1841c-.8636-.8859-1.3391-2.0525-1.3391-3.2869 0-2.5968 2.1124-4.7099 4.7092-4.7099.218 0 .4456.0187.7147.06.007.0007.0145.0017.0212.0017a.1373.1373 0 00.1323-.104.138.138 0 00-.089-.1616c-.5009-.1697-1.0177-.2558-1.5345-.2558-2.6367 0-4.7823 2.1456-4.7823 4.7833m6.5617 0c0-.9807-.7973-1.7776-1.7783-1.7776-.9825 0-1.778.797-1.778 1.7776 0 .9832.7955 1.7787 1.778 1.7787.981 0 1.7783-.7955 1.7783-1.7787m-7.7477 2.4085a6.4868 6.4868 0 01-.49-2.4769c0-3.2374 2.363-5.9189 5.4578-6.4304.0776-2.067.2822-4.0016.8135-4.0016.5274 0 .7313 1.8898.8104 3.936a6.45 6.45 0 011.7998.4173l.0043.0018c.714-1.2362 1.2728-2.2042 1.3197-2.2878 1.1236-1.9449 2.7972-4.9594 3.5923-4.4986.7963.4582-.9539 3.3693-2.1025 5.36-.0476.0837-.597 1.0355-1.3021 2.2564.4985.368.9423.8044 1.3183 1.2961 2.0214-1.0982 4.1723-2.1244 4.4658-1.6157.2957.5123-1.6616 1.856-3.6265 3.0568a6.4794 6.4794 0 01.4607 1.7992c1.4083 0 2.5019.0004 2.5957.0004 2.248 0 5.6956-.0579 5.6946.8614.001.9176-3.3955.8576-5.6946.8594-.0973 0-1.2132 0-2.6409-.001a6.4492 6.4492 0 01-.5104 1.7028c1.2559.725 2.2405 1.2936 2.3237 1.342 1.9463 1.1229 4.9608 2.7968 4.4997 3.592-.4579.7976-3.3697-.955-5.3608-2.1026a3035.593 3035.593 0 01-2.376-1.3716c-.3693.4445-.7994.8354-1.2724 1.168.7567 1.312 1.3603 2.3573 1.4097 2.4437 1.1229 1.9456 2.8977 4.903 2.1015 5.3605-.7959.461-2.4423-2.5118-3.5924-4.501a5926.694 5926.694 0 00-1.4488-2.5112c-.508.1838-1.0428.3108-1.6006.362 0 1.5914 0 2.8815-.001 2.9852.001 2.2468.0582 5.6942-.8608 5.6924-.9187.0018-.8583-3.3955-.8594-5.6942v-3.053c-.5274-.0902-1.0333-.2401-1.5092-.4493-.8209 1.4216-1.4972 2.5929-1.55 2.6846-1.123 1.9452-2.7965 4.9593-3.592 4.499-.796-.459.9535-3.3698 2.1021-5.3601.0544-.095.7395-1.2813 1.5692-2.7171-.4064-.3267-.7687-.702-1.0866-1.1155-1.8721 1.0809-4.1797 2.3463-4.58 1.6503-.403-.6964 1.822-2.044 3.7182-3.1397m300.6549-4.032c-.3278-.1661-7.8324-3.9824-13.255-6.6981-5.4218-2.7171-6.4974-7.1343-5.8398-12.5413-3.0445 3.5087-3.1867 8.1076-3.2953 9.9903-.9229-.4632-7.4034-3.436-16.8402-2.2281.533-4.0852-1.0481-6.453-1.8863-7.3209l-.0932.071c.3779 1.1073-.0836 4.6016-2.5125 5.5181-.358-1.9653-2.288-3.3983-4.6506-3.3983-8.5538 0-9.6605 16.4405-16.8318 16.4405-1.7871 0-3.1354-1.0566-3.568.454-2.051 7.1639-4.9459 15.451-4.9459 15.451.5697.2018.7056.986.4957 1.7861-.0018.0018-.0036.0028-.0053.0039-1.7784 1.4397-.2914 3.8072-.2914 3.8072h5.0828s-1.0019-2.0938-1.3085-2.8071c-.2339-.5447-.5535-.84-.9154-1.0248.8823-2.891 4.4524-12.1112 5.945-12.3328 8.7669-1.2975 15.2361-5.0959 18.6051-7.512-1.1539 2.0729-2.7407 3.7158-3.5232 4.4608-1.185 1.1275-.6512 1.7657.482 2.9563.891.9363 3.2159 2.7806 6.9225 7.9538-.5235.2702-1.106.7055-1.4986 1.4026-.4325.7701.7532 3.5168 2.342 4.8267 0 0 1.6126-3.5003 1.775-3.9204.3823-.9913.345-1.3459-.0706-1.826l.3827-.7733c-.2385-.398-5.6137-9.295-5.6137-9.295l9.533-8.0292c2.34.588 10.704 5.1241 18.4172 3.9243 4.15 1.251 13.6144 2.493 13.6144 2.493l-1.2527 1.3152c.0166-.001-.7112 4.2874-2.9792 8.2325l.09.8233c-.7825-.0938-1.9936-.0896-3.0188.5617-.745.4738-1.8404 2.5297-1.573 4.5713 0 0 3.568-1.4574 3.9733-1.6546.864-.418 1.0453-.5951 1.1667-1.1345.526-.1972 1.2326-.4484 1.2326-.4484.442-.5672 2.7262-6.75 6.0646-13.0478.1922-.3634.0391-.8506-.3556-1.051m-77.9646 11.6019c.134-.496.2829-1.032.2829-1.032-.2103-.6903-3.9716-5.851-7.087-12.2808-.0476-.0995-.5228-1.035-1.2844-1.331-4.083-1.5875-12.5374-4.7446-17.6565-9.906-2.001-2.2169-3.0833-3.7324-3.3169-4.6052 0 0-2.1822 4.935.392 9.737l-2.6272-2.4017c-2.7964-.9225-8.6557-2.9602-16.4052-2.0235.4837-1.8341.7183-4.1995.67-5.52l-.3232-.2483c-.337.4628-3.2036 5.3622-8.3312 1.397-3.0438-2.3534-7.845-1.7865-9.409 4.1617-2.0598 7.8313-7.7222 10.425-11.2274 11.3171-.4791.1224-.6746.2583-.87.6019l-6.701 14.8068c-.6064.097-1.705.304-2.6451.6494-.8284.3055-1.4517 3.2491-.8728 5.2257 0 0 3.3041-1.984 3.6795-2.2324 1.1641-.7711.9779-1.8115.9779-1.8115h.7246l8.141-12.5186c6.8996-1.4122 12.0562-3.5525 16.321-6.4277-.3652.7335-.8764 1.4179-2.2053 2.4515-.9966.775-.7824 1.3028-.3277 1.911.151.2028 5.0655 5.8205 7.6426 10.3078-.4735.3157-1.0333.773-1.5226 1.4005-.5433.6964.1312 3.464 1.5596 4.9481 0 0 2.0038-3.2914 2.2137-3.6911.4593-.8717.4903-1.112.2473-1.6468.3528-.5563.7726-.998.7726-.998l-5.474-10.2676c2.082-1.1229 5.5696-4.9145 8.0066-7.7424 2.2824.066 4.216.8513 5.4853 1.174 3.968 1.0076 10.6299 5.7503 19.6346 4.2711 4.1024.1782 10.0813 1.5685 13.1392 2.341l.3422 1.7227c.0084-.0145 3.1051 3.056 5.0277 7.1928 0 0 .4587.3668.968.7605-.4339.3267-1.4086 1.2005-1.566 2.57-.1012.8774 2.0582 2.9493 4.031 3.5391 0 0 .128-3.8506.115-4.3014-.0283-.9328-.1112-1.1832-.5218-1.5007m94.7254-38.5424c-.6636-.344-2.5344-2.2804-4.2443-4.214-.9588-1.084-2.6723-3.194-3.1171-3.7436l-.1179.054-.2483 4.6464c.5708.3693 4.8207 3.6936 5.0437 3.8922.9027.7976.2892 1.8348-.7515 1.4704-1.04-.3662-1.7497 1.8132-1.7497 1.8132.2635.4354.5588 1.427 1.7148 1.4097.8537-.0137 1.1786-.4755 1.1786-.4755l1.699-.1644s.1397-1.4736.5098-2.0161c.8756-1.288.0829-2.6723.0829-2.6723m-14.059.3185c.4873.9226.9448 1.7763 1.0856 1.9862.3358.5055 7.5046 1.082 7.5046 1.082l-6.1454-3.5236-1.7557-4.9837.001-.0159-.0063.0022-.0029-.0075c-.0063.0036-.0102.0092-.0162.0127-6.0635 1.645-15.7025 9.1028-18.3268 12.2915 8.0014 3.1016 6.0883 13.3749 13.0613 14.8947 3.1937.696 6.5214.0377 8.7623-.369l-.5049.9634c.0152-.0057.459 4.0238-.5323 8.2024l-.0378 1.22s-1.257-.5673-2.3629-.0251c-.793.3884-2.1981 2.2253-2.239 4.2848 0 0 3.7457-.909 4.1758-1.0424 1.0142-.3144 1.1592-.4604 1.3878-1.1233.0928-.1051 1.4789-1.0929 1.4789-1.0929.26-.6424.6417-7.1219 2.191-13.8014.059-.2557-.1019-.6438-.3584-.695l-14.2483-3.1534s2.1795-12.9237 6.8887-15.1067M138.499 55.912c8.2639 1.6553 11.9155-3.9412 11.9155-3.9412-2.3644 1.2643-7.8874 2.1773-8.4667 1.5346 9.1112-6.8263 17.847-5.9415 20.7218-5.5923l1.144-1.326c-2.3537-1.2895-5.3865-2.8406-10.0686-2.8406-8.4606 0-11.571 4.8736-17.6011 4.966-3.7345.0575-6.417-2.908-6.5398-2.9704l-.298.277c.003.0271 1.343 8.321 9.193 9.893m88.3538 3.4547c.013-.2558-.1467-.6114-.7768-.6114h-15.233c-.8755 3.629 2.0853 6.2463 4.1375 6.0547 2.8733-.2684 6.2734-1.5127 8.7203-2.5354l-.2078 1.0573c.014-.0074 1.1112 5.3495 1.1158 9.5451-.534-.0635-1.4855-.0885-2.5368.461-.7825.4086-1.8334 2.5337-1.5596 4.5753 0 0 3.5627-1.468 3.9687-1.6655.954-.4657 1.2252-.7468 1.1998-1.5956.513-.6823 1.3988-1.541 1.3988-1.541.1425-.666-.5902-7.0082-.2269-13.7445M215.6643 84.602c-1.3881-1.774-3.133-4.9173-3.9793-7.3688-4.265-8.057-2.523-18.1127-2.523-18.1127-1.0577 0-2.8558.2237-4.196 2.4889-2.8713-6.1521-6.4766-9.5352-14.6258-9.5352-.4449 0 1.7095 2.2292 5.062 6.5101-6.6608-2.3562-14.8678-2.7245-19.3223-2.371 1.1493-2.0694 1.6774-3.7758 1.7966-4.7272 0 0-2.5837 3.1129-5.5544 3.1129-6.496 0-2.122-6.2318-5.0123-6.2318-3.8227 0-7.0566 3.429-7.3406 7.862-.5997 9.3242-6.2276 10.7329-9.2385 10.7329-.996 0-1.4747.2392-1.9742.7641-.5136.5394-8.538 10.343-11.2074 13.504-.6784 0-1.6108.0067-2.6113.032-1.6245.041-2.2048 2.9507-2.1582 5.0095 0 0 3.4667-1.119 3.8918-1.2714.8865-.3168 1.2584-.9525 1.2919-1.4436l.7323.0773c1.3833-1.2654 9.8365-9.6174 11.5066-10.2415 8.339-1.7448 15.174-5.3047 19.68-8.1936-.456 1.882-1.2689 3.5137-2.252 4.4842-1.2306 1.215-.796 1.832.178 2.7724 1.4983 1.446 5.1901 4.9305 8.4844 9.1677-.283.5365-.6527 1.4192-.745 2.4923-.076.8802 1.9995 2.8318 4.006 3.296 0 0-.1157-3.852-.1576-4.3007-.0939-1-.2-1.2075-.7211-1.5328.241-.5048.5062-.8929.5062-.8929l-6.4484-9.4604c2.1414-1.6422 5.5404-7.0072 7.4475-10.1836 5.946 1.4686 13.6345 6.5345 21.136 5.7273 0 0 4.1567 6.5352 6.248 10.4648h-.0197c1.8788 1.9311 3.628 5.486 4.5176 7.2665 0 0 .95-.0631 1.6175.9197-.0173.11-.0547.446-.0547 1.3152 0 1.1366.525 1.985.5415 2.0045h5.4021c-.4875-.6477-2.1766-2.8343-2.4285-3.1281-.5242-.6128-.9807-.9197-1.4757-1.009m89.6313.0029c-1.393-1.7777-3.1513-4.9414-4.0015-7.4073a35.4598 35.4598 0 01-.848-1.403c-1.2521-2.195-1.6218-3.6001-2.6727-6.7966-1.1201.7175-5.0338.6265-7.5583.1298.1312.1242 4.68 4.953 6.9247 8.0698 1.8828 1.9346 3.4568 5.1304 4.5607 7.1607 0 0 .671-.0565 1.2947.7531-.0057.0293-.3856 1.7989.6406 3.6227.0064.012 5.3884 0 5.3884 0-.6058-.9895-1.7022-2.4624-1.8835-2.7224-.4763-.6805-.9966-1.2086-1.845-1.4068M269.573 41.6108c-9.3405 0-10.8528 4.1984-10.8528 4.1984 2.9665-.8915 6.9345-1.5533 11.0994-1.5533 4.3977 0 8.133.7225 11.4836.7225 4.3067 0 5.7711-1.3088 6.4058-2.6406-1.0404.242-2.1823.6858-4.8535.6858-4.9777 0-8.304-1.4128-13.2825-1.4128m-6.4777-7.6627c10.5223-1.718 17.412 1.2566 19.9027 2.342l.2032-.2987c-5.1033-2.8226-11.3193-5.8082-23.1863-3.0904-13.1682 3.0149-13.8886 6.4065-31.1824 7.9513l.431 1.6087c18.0489-1.365 21.5749-6.5113 33.8318-8.513m20.151 4.4091s3.1087 3.1873 7.0051 2.4077c2.9563-.5909 7.388-4.5159 13.0514-8.8268 0 0-1.0784-1.4454-3.7765-1.4454-3.8428 0-9.9635 3.4675-15.4774 3.1828 3.3341 2.8 7.0108 3.6922 8.1199 3.4554-2.1573 2.758-8.9225 1.2263-8.9225 1.2263m23.689-7.5329c1.8765 0 3.0724-.6184 4.9195-.6184 2.7552 0 4.461 1.0608 4.461 1.0608-.0018-.3725-.1736-2.0867-.6393-3.2593-.3598-.9073-1.0407-1.4312-1.5357-.2473-.1943.4692-.377.9292-.5284 1.2633-.3087.6798-1.0418.6953-.9197.2515.1153-.4222 1.2361-2.5805-4.0781-2.5805-4.682 0-7.1067 1.3532-9.3063.3397 2.8931 3.2212 5.8304 3.7902 7.627 3.7902m-75.0615 25.526c9.4223 1.8947 13.2295-5.915 20.1616-8.2988-3.5564-1.8143-8.7937.9285-8.7937.9285 7.7152-4.7953 10.8161-3.6018 14.4459-2.8596-.7338-.9038-2.1033-2.0299-4.3438-2.4814-9.731-1.9576-12.9508 6.1087-23.7797 4.1296 0 0 1.5667 3.6445 5.3637 3.8647 0 0-5.4497 1.8549-9.7208.5704 0 0 1.9815 3.2043 6.6668 4.1466m-21.825-24.3904c7.2672-1.8369 10.783-3.9024 15.0435-.8216 0 0 .048-2.6952-.767-3.9395-.2585-.3937-1.0007-.5023-1.905 1.307-.3192.6375-.6896.41-.721.1352-.1002-.8544.2046-2.5481-2.0733-2.6102-4.6369-.127-11.4405 4.1487-17.3284.4145 0 0 2.781 5.3795 7.7512 5.5146m9.4192 1.9876c-10.7597 4.9057-13.975 12.058-15.822 15.476 5.9227 3.0265 7.1973 8.5404 7.1973 8.5404s3.225-14.0893 6.0399-17.053c1.2912 1.153 5.4747 3.8143 5.4747 3.8143l-3.6378-5.7609.7437-5.0077zm6.4713 9.6957c.4064 1.0767-.575 1.68-1.2908.9067-.7168-.7733-2.2891.7507-2.2891.7507.0275.4854-.1651 1.4552.8191 1.9572.7267.369 1.2072.1235 1.2072.1235l1.5088.6205s.7772-1.1822 1.3304-1.476c1.3158-.6975 1.2633-2.2215 1.2633-2.2215-.6689-.9648-2.177-7.0206-2.5404-9.4576-.0787-.521-.2021-1.029-.3517-1.513 0 0-.1425-.0152-.1432-.011-1.4644 2.7185-2.0864 3.8414-2.0864 3.8414.3168.568 2.4705 6.2117 2.5728 6.4791m94.3177-.7532c.6381.9769-.2 1.789-1.0799 1.1808-.8784-.6082-2.1019 1.247-2.1019 1.247.1352.4745.1577 1.4775 1.2429 1.7569.8004.2064 1.223-.1418 1.223-.1418l1.6295.2829s.5098-1.342.9938-1.7547c1.15-.9797.7624-2.4769.7624-2.4769-.875-.8096-3.6989-6.4749-4.5946-8.8074-.1933-.4988-.4262-.9762-.6809-1.4217l-.1443.0166c-.853 3.019-1.2213 4.2665-1.2213 4.2665.4382.4928 3.8121 5.6084 3.9713 5.8518M391.1956 32.26c2.3326.1838 3.4043-.6766 6.8802-1.6661 3.7956-1.081 7.2147.7221 7.2147.7221.001-.4216-.7003-2.642-1.3-3.712-.2878-.514-.871-.5122-1.0922.0364-.1563.388-.5687 1.628-.5926 1.692-.1313.3492-.4244.2903-.551.0317-.435-.883-.9907-3.0374-3.4143-2.6677-13.3269 2.0323-15.1169-.1016-15.1169-.1016 1.8232 2.554 5.014 5.4709 7.9721 5.6652m-14.3813 8.4826c3.5525-.3376 11.678-6.2153 14.1012-6.859-2.8451-.0833-3.6212-.8153-6.1948-.6647-6.4678.3768-7.8584 5.4003-14.8907 3.4491.5281 1.2866 4.0672 4.3515 6.9843 4.0746m-66.8165.3916s.186.5993.211.6766c.1848.5588 6.7387 2.9365 6.7387 2.9365l-4.8418-4.87-.3267-4.6014.042-.5683c-6.1034 1.7487-10.6137 9.3578-16.964 12.9519 7.0096 3.5006 9.1415 9.3677 10.468 11.5295 0 0 1.3684-1.6958 1.5112-5.9694.1796-5.3417-2.0154-8.3248 3.1616-12.0854m34.5493-8.1527c13.644 1.8743 24.6401 8.5577 28.1862 10.9248-3.854 1.3843-9.4597-1.6097-16.142-.8774-5.1558.5652-7.9181 2.2031-9.2414 3.1017l.339.322c2.9764-.7754 5.7387-1.2802 11.3299-1.2675 4.4704.0102 7.8345.829 10.0524 1.0393 5.581.5277 5.842-2.4998 5.842-2.4998s-14.0526-10.2344-30.1075-12.4396c-16.6716-2.2913-24.806 1.145-24.806 1.2636l.478 1.2644c0-.1196 7.3957-3.1214 24.0694-.8315m1.0658 13.8197c-.0015-.1157-.0029-.2346-.005-.3507-1.5536-.3457-3.3433-.6597-5.4278-.6597-12.6637 0-13.4638 9.0258-24.196 9.0258-1.0114 0-3.2593-.3481-3.284-.3517l-.3514.326a.4994.4994 0 00.0484.0519c1.5695 1.4763 5.8469 4.597 12.6121 4.7014 8.3757.1295 12.9413-6.369 13.0422-6.7977-1.8898 1.535-9.5786 4.6895-10.4574 4.082 6.5486-7.4157 15.234-9.5232 18.0189-10.0273m-145.7505-6.476c2.0725-2.2112 5.038-5.0778 8.5382-6.866-.2864-.8354-2.3682-1.6437-4.7783-1.6437-7.2768 0-8.7916 7.346-18.0245 4.9146 3.1517 4.112 7.2676 5.5823 14.2646 3.5951m-91.197-14.8477l5.805.1778 4.6598 4.8994s2.6998-5.401 3.2385-6.515c.882-1.8232.7356-3.6714-3.2018-4.094-1.0767-.1161-2.36-.1726-3.332-.2061l1.7029-2.9556 2.4349 1.5346 8.7538.4939c.477.0159.8802-.3588.8975-.8371l.036-1.0774c10.0562-3.911 30.6433 25.9549 52.9914 19.9647l-.3013-.2063c-23.7567 1.5973-41.741-24.3883-52.9614-20.695v.0035l-1.6673-.0572c-1.393 0-2.171.677-2.171.677l-2.4744-.4537-1.1264-1.186-.001-.0014 2.0101.0713 3.3126-.9825.5715.5912c1.2717-.4067 2.6836-.2727 2.6836-.2727.8798.031 1.6192-.6572 1.6496-1.5377l.0229-.6523c18.0213-2.49 43.1595 22.7552 56.2437 22.7552l.4879-.4988c-10.5791 0-38.4207-26.9265-57.5991-22.9532l-1.8817-.0652c-.4463-.0159-1.0665 1.1077-2.789 1.076-1.7223-.0304-6.3737-1.2284-6.3737-1.2284s-.6985-1.475-.821-1.7657c0 0 .2064-.7419.5515-.7295.0455.0021 1.2664.0448 1.356.0476.2876.0018.4043-.1252.5412-.4875.0811-.2064.2932-.7843.4939-1.6397.2-.8562.211-1.4902.211-1.4902s2.6924.024 2.8744.0247c.2561.0028.3676-.1323.3122-.3178-.183-.6114-.7856-1.7209-3.1097-1.814l.158-2.5756c-.979-.3038-5.254-.7028-5.8797 1.5113 1.0833-.4692 4.4672-.9906 4.4234.1795l-.032.9268c-3.4894-.2357-7.6709.151-7.8603 1.1768-.1506.8001 2.5157 1.3543 3.4283 1.5367 0 0-.5077 1.603-1.3942 1.7978l2.0327 1.8517c.0057.0219 1.3007 2.5898 2.3619 4.6944.74 1.4651-4.9954-2.4987-5.4579-2.1502-.4208.315.7038 1.8158.973 2.509.346.7532-.0402.8244-.2173.954-.1722.128-3.6985 1.7896-5.202 3.3746l-2.1746-.0766c.8252-1.8736 2.1117-4.7268 2.6536-5.5375.8259-1.2372-.8643-.767-1.9113.7038-.4139.5817-2.2984 3.1725-3.3398 4.7438l-.1051 3.0166c-.0695 2.0098 1.5021 3.695 3.5122 3.7662M93.1757 3.0095l-11.4325-.3987c-.7828-1.4975-2.323-2.5456-4.1324-2.6077-2.6787-.0949-4.9273 2.002-5.0204 4.681l-.0018.053c8.1135.3982 15.119 1.0755 20.4675 1.7098zM51.5468 8.548c1.4835-.0095 2.3936.9878 2.299 1.9237.471-.005.943-.0103 1.4168-.0138h.0007l.0717-1.9117c8.686.048 19.3872.4114 24.7357.859 1.749.146 1.99 1.349 1.972 2.0867 0 0 .9458.0804 1.4122.121l.073-1.9667c6.4625.4738 13.022 1.0925 19.3382 1.8577.0201-.5934-.0208-1.1885 0-1.7822-3.9352-.5952-16.9234-2.6194-34.3503-3.2375-18.0746-.637-31.0198.4738-35.7353.8044-.0205.5916.0208 1.1825 0 1.7748 6.3658-.3256 12.2392-.471 18.7663-.5154M186.049 42.7915c-7.5523-1.7318-17.4784-1.361-21.5138 4.0009l.3334.153c2.1308-1.4685 9.9296-3.9623 20.6555-2.0284 7.8828 1.4206 12.5197-2.605 12.5197-2.605-.0483.0191-5.6914 1.9238-11.9948.4795M69.9389 4.6181l.14-4.015L59.4615.2336c-.966-.0343-1.7956.6113-2.0384 1.507l-12.5394-.4388c-1.1286-.0395-2.075.8431-2.1142 1.9716L42.7182 4.73c4.059-.1983 9.036-.3588 14.836-.3588 4.547 0 11.9356.229 12.3847.247m52.0965 66.4368c-1.155 10.9146-10.9743 18.8542-21.89 17.7003-4.1002-.4346-8.0097-1.9438-12.7235-5.8385 1.5977-2.0433 3.6886 2.2934 13.002 3.206 9.3246.9141 17.7267-6.0575 18.7134-15.3754.986-9.3172-5.792-17.6985-15.1088-18.6852-.8167-.0861-1.6464-.1161-2.4818-.0935-.3789 2.0034-2.0433 4.8694-4.269 7.0192 0 0-.7669-1.281-1.07-1.7604-1.489-2.3583-2.329-3.229-2.803-2.9541-.493.2836-.1105 1.5398 1.3221 4.2217.29.5422 1.02 1.8411 1.0534 1.8983-.0363.031-1.5053 1.295-2.8822 2.1935-.0402-.0218-1.8471-1.0206-2.5308-1.3649-2.0514-1.0343-3.0448-1.2746-3.2956-.841-.2392.4138.4607 1.1522 2.244 2.34.448.2977 1.6672 1.0491 1.6672 1.0491-1.7879 1.063-4.2803 2.1386-6.5737 2.8544l-.0003-.0028v.0007c-.2226 1.2689-.3479 2.6193-.3479 4.0618 0 1.488-.7348 1.4912-1.5046 1.6637-.303-2.1547-.2536-4.1444-.1118-5.4835 1.1554-10.9164 10.975-18.8567 21.8906-17.701 10.9156 1.1546 18.856 10.976 17.7003 21.8916"/></svg>
